<svg version="1.2" xmlns="http://www.w3.org/2000/svg" viewBox="0 0 1280 380" width="1280" height="380"><defs><linearGradient id="P" gradientUnits="userSpaceOnUse"/><linearGradient id="g1" x2="1" href="#P" gradientTransform="matrix(0,331.407,-1769.142,0,640,-19.535)"><stop stop-color="#bbb7b7" stop-opacity=".01"/><stop offset=".34" stop-color="#ccc" stop-opacity=".29"/><stop offset="1" stop-color="#fff" stop-opacity=".5"/></linearGradient></defs><style>.a{fill:none}.b{fill:url(#g1)}</style><path fill-rule="evenodd" class="a" d="m-640 0h2560v964h-2560z"/><path fill-rule="evenodd" class="b" d="m64 308.8l78.5-209.7h37.4l78.5 209.7h-36.5l-20.9-58h-80.3l-20.5 58zm107.4-144.4q-2.1-5.6-5.9-17.8-3.7-12.2-5.1-17.9-3.8 17.5-11.2 38.1l-18.7 54h60.3zm105.4 143.4v-208.8h60.1q39.1 0 58.5 16 19.5 16 19.5 47.1 0 32.7-21.4 50.2-21.4 17.4-60.9 17.4h-21.7v78.1zm90.9-115.5q12.4-9 12.4-28.3 0-17.8-11.1-26.5-11.1-8.8-34.5-8.8h-23.9v72.7h18.2q26.6 0 38.9-9.1zm54.4 116.5l78.5-209.8h37.3l78.6 209.8h-36.5l-21-58h-80.2l-20.5 58zm107.4-144.4q-2.1-5.6-5.9-17.8-3.7-12.2-5.1-17.9-3.9 17.4-11.2 38.1l-18.7 54h60.3zm93.1 135.4v-32.3q14.2 6.7 30.2 10.6 16 3.8 29.8 3.8 20.1 0 29.7-7.7 9.6-7.7 9.6-20.7 0-11.7-8.8-19.9-8.8-8.1-36.4-19.3-28.4-11.6-40-26.4-11.7-14.9-11.7-35.8 0-26.1 18.5-41.1 18.5-15 49.6-15 29.8 0 59.4 13.1l-10.8 27.9q-27.7-11.7-49.5-11.7-16.5 0-25 7.2-8.5 7.2-8.5 19.1 0 8.1 3.4 13.9 3.4 5.8 11.2 10.9 7.8 5.2 28.2 13.6 22.8 9.6 33.5 17.9 10.6 8.3 15.6 18.7 5 10.4 5 24.6 0 27.9-20 43.7-20.1 15.9-55.3 15.9-35.3 0-57.7-11zm218.9-0.3v-29.9q13.3 6.6 28.1 10.2 14.9 3.6 28.5 3.6 24.3 0 36.3-9 11.9-9 11.9-27.9 0-16.7-13.2-24.6-13.3-7.9-41.7-7.9h-18.1v-27.3h18.4q49.9 0 49.9-34.6 0-13.4-8.7-20.7-8.7-7.3-25.6-7.3-11.9 0-22.8 3.4-11 3.3-26 13.1l-16.4-23.5q28.7-21.1 66.6-21.1 31.5 0 49.2 13.5 17.7 13.6 17.7 37.5 0 19.9-11.6 33.1-11.5 13.2-32.5 17.8v1.1q25.1 3.2 37.6 15.7 12.6 12.5 12.6 33.2 0 30.2-21.3 46.5-21.2 16.4-60.4 16.4-34.7 0-58.5-11.3zm171.1 6.6q-5.3-5.8-5.3-16 0-10.2 5.3-15.7 5.4-5.5 15.6-5.5 10.3 0 15.7 5.7 5.3 5.7 5.3 15.5 0 10-5.4 15.9-5.5 5.8-15.6 5.8-10.2 0-15.6-5.7zm79.2-22.6q-18-27.2-18-79.9 0-55.2 17.5-81.4 17.6-26.2 53.5-26.2 35.1 0 53.1 27.4 18.1 27.4 18.1 80.2 0 54.4-17.6 80.8-17.5 26.4-53.6 26.4-34.9 0-53-27.3zm81.5-19.9q8.9-18.5 8.9-60.6 0-41.9-8.9-60.7-8.9-18.7-28.1-18.7-19.2 0-27.9 18.4-8.7 18.4-8.7 61 0 42.7 8.7 60.9 8.7 18.3 27.9 18.3 19.2 0 28.1-18.6z"/></svg>